# Created By Carrara 5.0

mtllib B4BC 66001.Mtl

# Number of vertices: 42
v 1.199999 2.442308 -1.8
v 0.9 1.062308 0.599999
v 0.9 1.602308 -0.66
v -1.200001 2.442307 -1.8
v -0.9 1.062307 0.599999
v -0.9 1.962308 -0.42
v -0.6 1.542308 -0.6
v -0.9 1.602308 -0.66
v 0.12 1.902308 0.299999
v -0.12 1.902308 0.299999
v -0.12 2.202308 -0.78
v 0.12 2.202308 -0.78
v 0.6 1.542308 -0.6
v 0.9 1.962308 -0.42
v 1.2 1.542308 -0.6
v 1.08 1.422308 -0.42
v 0.78 1.422308 -0.42
v -1.2 1.542308 -0.6
v -1.08 1.422307 -0.42
v -0.78 1.422308 -0.42
v 2.1 0.942309 -3
v 1.2 1.542308 -0.6
v 1.619999 1.242308 -1.8
v 1.8 1.242308 -1.8
v -0.72 1.482308 -0.6
v 0 1.662308 3
v 0.72 1.482308 -0.6
v -2.1 0.942307 -3
v -1.8 1.242307 -1.8
v -1.62 1.242307 -1.8
v -0.6 1.542308 -0.6
v 1.2 1.242308 -1.200001
v 0.6 1.542308 -0.6
v -1.2 1.242308 -1.200001
v -1.2 1.542308 -0.6
v 0 1.182308 0.48
v 0 1.902308 -1.200001
v -0.6 1.542308 -0.6
v -0.3 1.602308 -0.66
v 0 1.842308 -0.960001
v 0.3 1.602308 -0.66
v 0 1.662308 3

# Number of normals: 123
vn -0.732727 0.625499 0.268071
vn -0.879029 -0.357499 -0.31544
vn -0.044994 0.809859 0.584897
vn 0.817992 -0.574805 -0.022108
vn -0.732727 0.625499 0.268071
vn -0.879029 -0.357499 -0.31544
vn -0.104471 0.914115 0.391764
vn 0.822616 -0.426355 -0.376197
vn -0.732727 0.625499 0.268071
vn -0.076527 0.869895 0.487264
vn 0.879029 -0.357499 -0.315441
vn 0.732725 0.625501 0.268072
vn -0.817992 -0.574805 -0.022108
vn 0.044993 0.809859 0.584897
vn 0.879029 -0.357499 -0.315441
vn 0.732725 0.625501 0.268072
vn -0.822616 -0.426356 -0.376197
vn 0.104471 0.914115 0.391764
vn 0.879029 -0.357499 -0.315441
vn -0.822616 -0.426356 -0.376197
vn -0.817992 -0.574805 -0.022108
vn 0.07864 0.873544 0.48035
vn -0.822616 -0.426356 -0.376197
vn 0 -0.832051 -0.554699
vn -0.000001 0.832051 0.554699
vn -0.446767 0.893534 0.044677
vn 0.679518 0.720702 -0.137276
vn 0 0.894427 -0.447214
vn -0.549442 0.824164 0.13736
vn -0.029519 0.9039 0.426724
vn 0.756031 -0.410887 0.509498
vn 0.774527 -0.609464 -0.169296
vn -0.817992 -0.574805 -0.022108
vn 0.076527 0.869895 0.487265
vn 0.732725 0.625501 0.268072
vn 0 -0.982442 -0.186569
vn -0.744561 -0.653627 -0.135649
vn 0 -0.983871 -0.178878
vn 0.774527 -0.609464 -0.169296
vn 0.703985 -0.703985 -0.093865
vn 0 -0.963518 -0.267644
vn 0.774527 -0.609464 -0.169296
vn 0 -0.813734 0.581237
vn 0.756031 -0.410887 0.509498
vn 0 -0.963518 -0.267644
vn 0 -0.813734 0.581237
vn -0.774527 -0.609464 -0.169296
vn -0.756031 -0.410888 0.509498
vn 0.835916 -0.507381 -0.209304
vn -0.07864 0.873544 0.48035
vn 0 -0.832051 -0.554699
vn 0 0.832051 0.554699
vn 0 -0.970142 0.242536
vn 0.549442 0.824163 0.137361
vn -0.754088 -0.640329 -0.146049
vn -0.756031 -0.410887 0.509498
vn 0.446767 0.893534 0.044677
vn -0.679518 0.720701 -0.137276
vn 0.050699 0.897689 0.437703
vn 0.835808 -0.511351 -0.19986
vn -0.879029 -0.357499 -0.31544
vn 0 0.832051 0.5547
vn 0 -0.832051 -0.5547
vn 0 0.894427 -0.447213
vn -0.512147 0.768221 -0.384111
vn 0 0.83205 0.5547
vn 0 -0.832051 -0.5547
vn 0 0.832051 0.5547
vn 0 -0.832051 -0.554699
vn 0.000001 -0.83205 -0.5547
vn 0 0.83205 0.554701
vn 0 -0.970142 0.242536
vn 0.512147 0.768221 -0.384111
vn 0.000001 -0.83205 -0.554701
vn 0 0.83205 0.5547
vn 0 -0.832051 -0.5547
vn -0.000001 0.832052 0.554698
vn 0 -0.970142 0.242536
vn 0.549442 0.824164 0.137361
vn 0 -0.970143 0.242535
vn -0.512147 0.768221 -0.384111
vn 0 -0.970142 0.242536
vn 0 -0.970143 0.242535
vn 0 -0.970143 0.242535
vn -0.446767 0.893534 0.044677
vn -0.446767 0.893534 0.044677
vn 0.679518 0.720702 -0.137276
vn 0 -0.996073 -0.08854
vn 0.703985 -0.703985 -0.093865
vn 0.446767 0.893534 0.044677
vn -0.679518 0.720701 -0.137276
vn 0.446767 0.893534 0.044677
vn 0 -0.970142 0.242536
vn 0 -0.970142 0.242536
vn 0.512147 0.768222 -0.384111
vn -0.549442 0.824163 0.13736
vn 0 -0.970142 0.242536
vn 0 -0.970142 0.242536
vn 0 -0.970142 0.242536
vn 0 0.894427 -0.447213
vn -0.512147 0.768221 -0.384111
vn 0.549442 0.824164 0.137361
vn 0 0.894427 -0.447213
vn 0 0.894427 -0.447214
vn -0.549442 0.824164 0.13736
vn 0.512147 0.768221 -0.384111
vn 0 0.894427 -0.447214
vn 0.679518 0.720702 -0.137276
vn -0.679518 0.720701 -0.137276
vn 0 0.948683 0.316228
vn 0.756031 -0.410887 0.509498
vn -0.089089 0.890871 0.445434
vn 0 -0.813734 0.581237
vn -0.756031 -0.410888 0.509498
vn 0.321519 0.918631 0.229659
vn -0.470755 0.855922 0.213981
vn 0.703985 -0.703985 -0.093865
vn -0.470755 0.855922 0.213981
vn -0.037372 0.822617 0.567366
vn -0.470755 0.855922 0.213981
vn 0.140223 0.86781 0.4767
vn 0.012925 0.769861 0.638081
vn -0.703985 -0.703985 -0.093865

# Number of texture vertices: 123
vt 0 0
vt 0 0
vt 0 0
vt 0 0
vt 0 0
vt 0 0
vt 0 0
vt 0 0
vt 0 0
vt 0 0
vt 0 0
vt 0 0
vt 0 0
vt 0 0
vt 0 0
vt 0 0
vt 0 0
vt 0 0
vt 0 0
vt 0 0
vt 0 0
vt 0 0
vt 0 0
vt 0 0
vt 0 0
vt 0 0
vt 0 0
vt 0 0
vt 0 0
vt 0 0
vt 0 0
vt 0 0
vt 0 0
vt 0 0
vt 0 0
vt 0 0
vt 0 0
vt 0 0
vt 0 0
vt 0 0
vt 0 0
vt 0 0
vt 0 0
vt 0 0
vt 0 0
vt 0 0
vt 0 0
vt 0 0
vt 0 0
vt 0 0
vt 0 0
vt 0 0
vt 0 0
vt 0 0
vt 0 0
vt 0 0
vt 0 0
vt 0 0
vt 0 0
vt 0 0
vt 0 0
vt 0 0
vt 0 0
vt 0 0
vt 0 0
vt 0 0
vt 0 0
vt 0 0
vt 0 0
vt 0 0
vt 0 0
vt 0 0
vt 0 0
vt 0 0
vt 0 0
vt 0 0
vt 0 0
vt 0 0
vt 0 0
vt 0 0
vt 0 0
vt 0 0
vt 0 0
vt 0 0
vt 0 0
vt 0 0
vt 0 0
vt 0 0
vt 0 0
vt 0 0
vt 0 0
vt 0 0
vt 0 0
vt 0 0
vt 0 0
vt 0 0
vt 0 0
vt 0 0
vt 0 0
vt 0 0
vt 0 0
vt 0 0
vt 0 0
vt 0 0
vt 0 0
vt 0 0
vt 0 0
vt 0 0
vt 0 0
vt 0 0
vt 0 0
vt 0 0
vt 0 0
vt 0 0
vt 0 0
vt 0 0
vt 0 0
vt 0 0
vt 0 0
vt 0 0
vt 0 0
vt 0 0
vt 0 0

g Default 
usemtl color_77
# Number of Polygons: 6
f 3/9/9 2/5/5 1/1/1 
f 6/19/19 5/15/15 4/11/11 
f 8/34/34 5/18/18 7/22/22 
f 9/36/36 10/38/38 11/41/41 
f 9/36/36 11/41/41 12/45/45 
f 14/60/60 2/8/8 13/49/49 
usemtl color_BC
# Number of Polygons: 8
f 17/68/68 16/66/66 15/62/62 
f 20/76/76 19/74/74 18/70/70 
f 18/70/70 7/24/24 20/76/76 
f 19/75/75 20/77/77 7/25/25 
f 7/25/25 18/71/71 19/75/75 
f 16/67/67 17/69/69 13/51/51 
f 15/62/62 13/52/52 17/68/68 
f 13/51/51 15/63/63 16/67/67 
usemtl color_DD
# Number of Polygons: 8
f 21/78/78 22/82/82 13/53/53 
f 21/80/80 24/84/84 23/83/83 
f 25/85/85 26/86/86 7/26/26 
f 12/47/47 13/55/55 9/37/37 
f 9/36/36 26/88/88 10/38/38 
f 13/57/57 26/90/90 27/92/92 
f 30/98/98 29/97/97 28/93/93 
f 31/99/99 18/72/72 28/94/94 
usemtl color_88
# Number of Polygons: 4
f 33/103/103 15/64/64 32/100/100 
f 1/2/2 2/6/6 14/61/61 
f 34/104/104 35/107/107 7/28/28 
f 4/12/12 5/16/16 8/35/35 
usemtl color_AA
# Number of Polygons: 4
f 21/79/79 13/54/54 32/102/102 
f 26/87/87 36/108/108 7/27/27 
f 11/44/44 7/31/31 37/111/111 
f 34/106/106 28/95/95 18/73/73 
usemtl color_BB
# Number of Polygons: 5
f 15/65/65 21/81/81 32/101/101 
f 36/109/109 26/91/91 13/58/58 
f 10/39/39 7/32/32 11/42/42 
f 12/46/46 11/43/43 37/113/113 
f 34/105/105 7/29/29 28/96/96 
usemtl color_66
# Number of Polygons: 4
f 7/23/23 5/17/17 6/20/20 
f 8/34/34 7/22/22 4/14/14 
f 1/4/4 14/60/60 13/49/49 
f 13/50/50 2/7/7 3/10/10 
usemtl color_55
# Number of Polygons: 2
f 7/33/33 6/21/21 4/13/13 
f 1/3/3 13/50/50 3/10/10 
usemtl color_CC
# Number of Polygons: 2
f 38/117/117 10/40/40 26/89/89 
f 12/48/48 37/114/114 13/56/56 
usemtl color_99
# Number of Polygons: 6
f 37/116/116 39/118/118 40/120/120 
f 41/122/122 39/119/119 7/30/30 
f 37/112/112 7/30/30 39/119/119 
f 40/121/121 41/122/122 13/59/59 
f 37/115/115 40/121/121 13/59/59 
f 41/122/122 7/30/30 13/59/59 
usemtl color_44
# Number of Polygons: 1
f 40/121/121 39/119/119 41/122/122 
usemtl color_9A
# Number of Polygons: 1
f 36/110/110 13/59/59 7/30/30 
usemtl color_EE
# Number of Polygons: 1
f 9/37/37 13/55/55 42/123/123 
